<svg xmlns="http://www.w3.org/2000/svg" xmlns:xlink="http://www.w3.org/1999/xlink" width="500" zoomAndPan="magnify" viewBox="0 0 375 374.999991" height="500" preserveAspectRatio="xMidYMid meet" version="1.0"><defs><clipPath id="372b64b183"><path d="M 24.300781 24.300781 L 350.699219 24.300781 L 350.699219 350.699219 L 24.300781 350.699219 Z M 24.300781 24.300781 " clip-rule="nonzero"/></clipPath><clipPath id="67de4e6435"><path d="M 187.5 24.300781 C 97.367188 24.300781 24.300781 97.367188 24.300781 187.5 C 24.300781 277.632812 97.367188 350.699219 187.5 350.699219 C 277.632812 350.699219 350.699219 277.632812 350.699219 187.5 C 350.699219 97.367188 277.632812 24.300781 187.5 24.300781 Z M 187.5 24.300781 " clip-rule="nonzero"/></clipPath><clipPath id="3355233c92"><path d="M 0.300781 0.300781 L 326.699219 0.300781 L 326.699219 326.699219 L 0.300781 326.699219 Z M 0.300781 0.300781 " clip-rule="nonzero"/></clipPath><clipPath id="8f3dcf35e3"><path d="M 163.5 0.300781 C 73.367188 0.300781 0.300781 73.367188 0.300781 163.5 C 0.300781 253.632812 73.367188 326.699219 163.5 326.699219 C 253.632812 326.699219 326.699219 253.632812 326.699219 163.5 C 326.699219 73.367188 253.632812 0.300781 163.5 0.300781 Z M 163.5 0.300781 " clip-rule="nonzero"/></clipPath><clipPath id="398e7cb440"><rect x="0" width="327" y="0" height="327"/></clipPath><clipPath id="b91db16f36"><path d="M 43.328125 67.621094 L 293.386719 67.621094 L 293.386719 307.378906 L 43.328125 307.378906 Z M 43.328125 67.621094 " clip-rule="nonzero"/></clipPath><clipPath id="f15240df17"><path d="M 162.1875 186.988281 L 162.1875 307.378906 C 95.359375 304.828125 43.328125 252.285156 43.328125 186.988281 C 43.328125 122.203125 95.359375 69.152344 162.1875 67.621094 L 162.1875 188.011719 Z M 162.1875 182.910156 L 162.1875 183.929688 C 162.1875 152.300781 175.449219 123.222656 190.242188 102.308594 C 205.035156 81.90625 224.929688 68.640625 248.90625 67.621094 L 248.90625 307.378906 C 224.929688 305.339844 205.035156 292.585938 190.242188 272.179688 C 175.449219 251.265625 162.1875 222.1875 162.1875 190.050781 Z M 248.90625 186.988281 C 248.90625 153.832031 257.578125 123.222656 266.25 101.800781 C 270.84375 91.085938 275.941406 82.414062 281.554688 76.292969 C 286.144531 71.703125 290.738281 68.640625 293.289062 68.132812 L 293.289062 307.378906 C 290.738281 305.339844 284.613281 302.789062 281.554688 297.6875 C 275.941406 292.074219 270.84375 283.402344 266.25 272.691406 C 258.089844 252.285156 248.90625 224.230469 248.90625 193.621094 Z M 248.90625 186.988281 " clip-rule="nonzero"/></clipPath><clipPath id="64d67f49eb"><path d="M 0.328125 0.621094 L 250.386719 0.621094 L 250.386719 240.378906 L 0.328125 240.378906 Z M 0.328125 0.621094 " clip-rule="nonzero"/></clipPath><clipPath id="ff093bac60"><path d="M 119.1875 119.988281 L 119.1875 240.378906 C 52.359375 237.828125 0.328125 185.285156 0.328125 119.988281 C 0.328125 55.203125 52.359375 2.152344 119.1875 0.621094 L 119.1875 121.011719 Z M 119.1875 115.910156 L 119.1875 116.929688 C 119.1875 85.300781 132.449219 56.222656 147.242188 35.308594 C 162.035156 14.90625 181.929688 1.640625 205.90625 0.621094 L 205.90625 240.378906 C 181.929688 238.339844 162.035156 225.585938 147.242188 205.179688 C 132.449219 184.265625 119.1875 155.1875 119.1875 123.050781 Z M 205.90625 119.988281 C 205.90625 86.832031 214.578125 56.222656 223.25 34.800781 C 227.84375 24.085938 232.941406 15.414062 238.554688 9.292969 C 243.144531 4.703125 247.738281 1.640625 250.289062 1.132812 L 250.289062 240.378906 C 247.738281 238.339844 241.613281 235.789062 238.554688 230.6875 C 232.941406 225.074219 227.84375 216.402344 223.25 205.691406 C 215.089844 185.285156 205.90625 157.230469 205.90625 126.621094 Z M 205.90625 119.988281 " clip-rule="nonzero"/></clipPath><clipPath id="774a3a7f18"><rect x="0" width="251" y="0" height="241"/></clipPath></defs><rect x="-37.5" width="450" fill="#ffffff" y="-37.499999" height="449.999989" fill-opacity="1"/><rect x="-37.5" width="450" fill="#000000" y="-37.499999" height="449.999989" fill-opacity="1"/><g clip-path="url(#372b64b183)"><g clip-path="url(#67de4e6435)"><g transform="matrix(1, 0, 0, 1, 24, 24)"><g clip-path="url(#398e7cb440)"><g clip-path="url(#3355233c92)"><g clip-path="url(#8f3dcf35e3)"><path fill="#ffffff" d="M 0.300781 0.300781 L 326.699219 0.300781 L 326.699219 326.699219 L 0.300781 326.699219 Z M 0.300781 0.300781 " fill-opacity="1" fill-rule="nonzero"/></g></g></g></g></g></g><g clip-path="url(#b91db16f36)"><g clip-path="url(#f15240df17)"><g transform="matrix(1, 0, 0, 1, 43, 67)"><g clip-path="url(#774a3a7f18)"><g clip-path="url(#64d67f49eb)"><g clip-path="url(#ff093bac60)"><path fill="#000000" d="M 0.328125 0.621094 L 250.386719 0.621094 L 250.386719 240.378906 L 0.328125 240.378906 Z M 0.328125 0.621094 " fill-opacity="1" fill-rule="nonzero"/></g></g></g></g></g></g></svg>